<svg width="24" height="25" viewBox="0 0 24 25" fill="none" xmlns="http://www.w3.org/2000/svg">
<path fill-rule="evenodd" clip-rule="evenodd" d="M7.24926 12.5005C7.24926 13.2785 7.29421 14.0292 7.37472 14.75H1.48584C1.33131 14.0244 1.25 13.2717 1.25 12.5C1.25 11.7283 1.33131 10.9756 1.48584 10.25H7.37484C7.29425 10.9711 7.24926 11.7222 7.24926 12.5005ZM7.5989 8.75H1.92217C3.22621 5.2469 6.30452 2.60734 10.0647 1.92374C9.89594 2.26674 9.7199 2.63864 9.5418 3.01487C9.46891 3.16886 9.39534 3.3243 9.32212 3.47806C8.65698 4.87486 7.99021 6.65965 7.5989 8.75ZM9.12706 8.75H14.8715C14.5031 6.92901 13.9133 5.36448 13.3221 4.12296C13.2333 3.93639 13.1445 3.74779 13.0565 3.56088C12.7326 2.8729 12.4193 2.20775 12.155 1.75109C12.1034 1.75037 12.0517 1.75 12 1.75C11.9478 1.75 11.8956 1.75037 11.8436 1.75112C11.5792 2.20778 11.2661 2.87287 10.9421 3.56087C10.8541 3.74778 10.7653 3.93638 10.6764 4.12296C10.0852 5.36448 9.49547 6.92901 9.12706 8.75ZM15.1136 10.25H8.88495C8.79815 10.9689 8.74926 11.7202 8.74926 12.5005C8.74926 13.2805 8.79811 14.0314 8.88483 14.75H15.1137C15.2004 14.0314 15.2493 13.2805 15.2493 12.5005C15.2493 11.7202 15.2004 10.9689 15.1136 10.25ZM16.3996 8.75C16.0083 6.65965 15.3416 4.87486 14.6764 3.47806C14.6032 3.3243 14.53 3.16957 14.4571 3.01558C14.2789 2.63914 14.1025 2.26661 13.9337 1.92345C17.6946 2.60658 20.7736 5.2464 22.0778 8.75H16.3996ZM22.5142 10.25H16.6237C16.7043 10.9711 16.7493 11.7222 16.7493 12.5005C16.7493 13.2785 16.7043 14.0292 16.6238 14.75H22.5142C22.6687 14.0244 22.75 13.2717 22.75 12.5C22.75 11.7283 22.6687 10.9756 22.5142 10.25ZM9.12686 16.25H14.8717C14.5033 18.0714 13.9134 19.6363 13.3221 20.8781C13.2342 21.0626 13.1464 21.2492 13.0593 21.4341C12.7343 22.124 12.4201 22.7911 12.155 23.2489C12.1034 23.2496 12.0517 23.25 12 23.25C11.9478 23.25 11.8956 23.2496 11.8435 23.2489C11.5785 22.7911 11.2642 22.1239 10.9393 21.434C10.8522 21.2492 10.7643 21.0626 10.6764 20.8781C10.0851 19.6363 9.49525 18.0714 9.12686 16.25ZM16.3998 16.25H22.0778C20.7736 19.7535 17.6947 22.3933 13.934 23.0765C14.1039 22.7313 14.2812 22.3567 14.4606 21.9779C14.5323 21.8264 14.6044 21.6742 14.6764 21.523C15.3417 20.1259 16.0085 18.3408 16.3998 16.25ZM1.92217 16.25H7.59871C7.99 18.3408 8.65687 20.1259 9.32212 21.523C9.39416 21.6742 9.46622 21.8264 9.53795 21.9779C9.71722 22.3565 9.89456 22.7311 10.0644 23.0762C6.30437 22.3925 3.22618 19.753 1.92217 16.25Z" fill="#18243E"/>
</svg>
